#!OML:ASF I:\Actors\actors\Patient Classification 1\Patient 1\Session 1\Subject1.ASF
:FULLY-SPECIFIED
:DEGREES
648
root 0.497002 17.5773 8.18858 16.4085 25.1448 -11.8432
lowerback 13.3483 3.82543 1.57213
upperback 1.52778 5.18785 -1.63628
thorax -5.55458 2.49464 -3.52343
lowerneck 5.82481 0.334492 -0.871982
upperneck 13.3132 -0.0287542 6.49085
head 3.30993 0.196079 2.29934
rclavicle -3.81667e-014 2.38542e-015
rhumerus 25.344 50.0946 -56.2256
rradius 61.1692
rwrist 13.0516
rhand 5.90135 -30.7756
rfingers 7.12502
rthumb 31.2293 -58.1332
lclavicle -3.81667e-014 2.38542e-015
lhumerus 15.2342 -50.7169 50.8598
lradius 63.1449
lwrist 7.06335
lhand -15.2241 -9.18033
lfingers 7.12502
lthumb 10.9486 20.5142
rfemur -9.4989 30.6404 22.5569
rtibia -1.38939
rfoot -40.0615 -46.0332
rtoes 31.8255
lfemur -21.4653 -43.7056 10.9628
ltibia -6.18218
lfoot -4.36985 37.4186
ltoes -3.32648
649
root 0.489804 17.5768 8.16722 16.507 25.2749 -12.0485
lowerback 13.8479 3.72186 1.43553
upperback 1.95936 5.03248 -1.64853
thorax -5.39381 2.42855 -3.45147
lowerneck 6.09722 0.466877 -1.11419
upperneck 12.0449 0.166692 6.72998
head 2.81576 0.254143 2.39617
rclavicle 4.77083e-015 3.10104e-014
rhumerus 26.3544 49.8278 -54.6615
rradius 62.4848
rwrist 12.841
rhand 5.69281 -30.7747
rfingers 7.12502
rthumb 31.0306 -58.1703
lclavicle 4.77083e-015 3.10104e-014
lhumerus 15.7785 -50.1624 49.5486
lradius 64.6243
lwrist 6.97348
lhand -14.8758 -8.96548
lfingers 7.12502
lthumb 11.2845 20.711
rfemur -9.82776 30.5938 22.6073
rtibia -1.39163
rfoot -39.9685 -46.102
rtoes 31.7136
lfemur -21.9223 -43.5758 11.5126
ltibia -6.15744
lfoot -4.19815 37.3862
ltoes -3.43754
650
root 0.485428 17.5759 8.14389 16.6036 25.4655 -12.2709
lowerback 14.3363 3.58332 1.40931
upperback 2.44112 4.84928 -1.64104
thorax -5.16607 2.34892 -3.41072
lowerneck 6.06799 0.599352 -1.42087
upperneck 11.134 0.352325 6.87174
head 2.50449 0.315318 2.48211
rclavicle 3.4191e-014 -8.50798e-014
rhumerus 27.477 49.4353 -53.1299
rradius 63.7051
rwrist 12.6736
rhand 5.79043 -31.089
rfingers 7.12502
rthumb 31.1236 -58.4669
lclavicle 3.4191e-014 -8.50798e-014
lhumerus 16.3306 -49.4972 48.2004
lradius 66.1968
lwrist 6.86634
lhand -14.8082 -8.76597
lfingers 7.12502
lthumb 11.3498 20.9069
rfemur -10.1817 30.3007 22.6797
rtibia -1.37501
rfoot -39.6702 -46.0373
rtoes 31.4386
lfemur -22.4537 -43.4915 12.1151
ltibia -6.10429
lfoot -3.9435 37.3692
ltoes -3.73575
651
root 0.480904 17.5755 8.12071 16.7062 25.6828 -12.52
lowerback 14.776 3.4216 1.38594
upperback 2.96251 4.63817 -1.61597
thorax -4.87146 2.2577 -3.34136
lowerneck 6.36899 0.718821 -1.53342
upperneck 9.75289 0.566425 6.77564
head 1.98126 0.379836 2.44182
rclavicle 3.97569e-015 -4.53229e-014
rhumerus 28.5835 48.9578 -51.6169
rradius 65.0828
rwrist 12.4498
rhand 6.17592 -32.361
rfingers 7.12502
rthumb 31.4909 -59.6677
lclavicle 3.97569e-015 -4.53229e-014
lhumerus 16.756 -48.7277 46.9128
lradius 67.8914
lwrist 6.67536
lhand -14.9287 -8.42726
lfingers 7.12502
lthumb 11.2335 21.252
rfemur -10.5564 30.0967 22.7656
rtibia -1.35658
rfoot -39.4658 -46.0407
rtoes 31.278
lfemur -22.9672 -43.4069 12.7696
ltibia -6.13273
lfoot -3.71722 37.3635
ltoes -3.96064
652
root 0.474918 17.5745 8.09907 16.8676 25.9188 -12.7486
lowerback 15.2591 3.33143 1.46791
upperback 3.43169 4.53182 -1.70603
thorax -4.62934 2.21484 -3.47605
lowerneck 6.91441 0.692084 -1.39508
upperneck 8.08205 0.614666 6.65701
head 1.34206 0.362632 2.34884
rclavicle 4.77083e-014 -3.18055e-014
rhumerus 29.1171 48.1269 -50.6363
rradius 66.5768
rwrist 12.2023
rhand 6.13269 -32.4008
rfingers 7.12502
rthumb 31.4498 -59.7155
lclavicle 4.77083e-014 -3.18055e-014
lhumerus 17.3621 -48.2187 45.3904
lradius 69.7635
lwrist 6.58744
lhand -15.0651 -8.11354
lfingers 7.12502
lthumb 11.102 21.5728
rfemur -10.9639 30.3326 22.765
rtibia -1.37163
rfoot -39.9328 -46.2454
rtoes 31.7101
lfemur -23.5072 -43.3085 13.4567
ltibia -6.2262
lfoot -3.6401 37.3488
ltoes -3.86891
653
root 0.473835 17.5746 8.07637 17.0619 26.2509 -12.9203
lowerback 15.8743 3.3502 1.89223
upperback 3.82136 4.61215 -2.02371
thorax -4.48081 2.25904 -4.09112
lowerneck 7.37063 0.409244 -0.930776
upperneck 6.70779 0.332292 6.70294
head 0.839474 0.198133 2.26962
rclavicle 4.69132e-014 -3.97569e-015
rhumerus 28.8019 46.7251 -50.5818
rradius 67.8526
rwrist 12.0121
rhand 6.15759 -32.6811
rfingers 7.12502
rthumb 31.4735 -59.9912
lclavicle 4.69132e-014 -3.97569e-015
lhumerus 18.6697 -48.2073 43.2844
lradius 71.7094
lwrist 6.6748
lhand -15.1214 -7.83562
lfingers 7.12502
lthumb 11.0477 21.8536
rfemur -11.3613 30.5699 22.6744
rtibia -1.43297
rfoot -40.5575 -46.4942
rtoes 32.2573
lfemur -24.2507 -43.2944 14.183
ltibia -6.1913
lfoot -3.47838 37.3051
ltoes -4.09014
654
root 0.480633 17.5761 8.05115 17.3067 26.6886 -13.0529
lowerback 16.4874 3.1612 2.21946
upperback 4.24327 4.41783 -2.19533
thorax -4.3371 2.17244 -4.44682
lowerneck 7.55685 0.328721 -0.917395
upperneck 5.64187 0.275874 6.72049
head 0.473408 0.142562 2.26832
rclavicle 2.94201e-014 3.26007e-014
rhumerus 29.1292 45.7311 -50.0652
rradius 69.1696
rwrist 11.7957
rhand 6.00983 -32.972
rfingers 7.12502
rthumb 31.3327 -60.3095
lclavicle 2.94201e-014 3.26007e-014
lhumerus 19.2828 -47.6639 41.7601
lradius 73.6618
lwrist 6.74674
lhand -15.1201 -7.61149
lfingers 7.12502
lthumb 11.0489 22.0777
rfemur -11.7789 30.6925 22.4956
rtibia -1.5537
rfoot -41.1727 -46.7195
rtoes 32.7354
lfemur -25.2013 -43.3542 14.9832
ltibia -6.08088
lfoot -3.22534 37.2789
ltoes -4.3755
